<svg width="696" height="198" viewBox="0 0 696 198" fill="none" xmlns="http://www.w3.org/2000/svg">
<path d="M242.565 148V109.5H259.175C262.31 109.5 264.785 110.004 266.6 111.012C268.415 112.002 269.708 113.295 270.478 114.89C271.248 116.467 271.633 118.117 271.633 119.84C271.633 121.563 271.257 123.14 270.505 124.57C269.753 125.982 268.525 127.072 266.82 127.842C268.213 128.337 269.359 129.052 270.258 129.987C271.174 130.904 271.843 131.949 272.265 133.122C272.705 134.277 272.925 135.451 272.925 136.642C272.925 137.999 272.696 139.356 272.238 140.712C271.798 142.051 271.073 143.27 270.065 144.37C269.057 145.47 267.718 146.35 266.05 147.01C264.4 147.67 262.365 148 259.945 148H242.565ZM249.688 141.317H260.413C261.788 141.317 262.86 141.079 263.63 140.602C264.418 140.126 264.968 139.53 265.28 138.815C265.61 138.082 265.775 137.357 265.775 136.642C265.775 135.762 265.583 134.928 265.198 134.14C264.831 133.333 264.143 132.673 263.135 132.16C262.145 131.647 260.706 131.39 258.818 131.39H249.688V141.317ZM249.688 124.982H258.295C260.385 124.982 261.925 124.579 262.915 123.772C263.923 122.947 264.428 121.857 264.428 120.5C264.428 119.803 264.299 119.125 264.043 118.465C263.786 117.787 263.291 117.227 262.558 116.787C261.824 116.347 260.743 116.127 259.313 116.127H249.688V124.982ZM288.998 148.66C285.937 148.66 283.507 147.835 281.711 146.185C279.932 144.517 279.043 142.262 279.043 139.42C279.043 137.587 279.502 135.982 280.418 134.607C281.353 133.214 282.646 132.142 284.296 131.39C285.964 130.62 287.907 130.235 290.126 130.235C291.354 130.235 292.537 130.354 293.673 130.592C294.828 130.812 295.837 131.133 296.698 131.555V129.795C296.698 128.218 296.249 127.036 295.351 126.247C294.471 125.441 293.169 125.037 291.446 125.037C290.071 125.037 288.659 125.285 287.211 125.78C285.762 126.275 284.296 127.008 282.811 127.98L280.748 122.562C282.362 121.499 284.158 120.683 286.138 120.115C288.118 119.528 290.117 119.235 292.133 119.235C295.91 119.235 298.733 120.133 300.603 121.93C302.473 123.708 303.408 126.367 303.408 129.905V148H296.698V145.745C295.745 146.698 294.608 147.422 293.288 147.917C291.987 148.413 290.557 148.66 288.998 148.66ZM290.593 142.857C291.73 142.857 292.821 142.637 293.866 142.197C294.929 141.739 295.873 141.097 296.698 140.272V136.945C295.91 136.56 295.03 136.267 294.058 136.065C293.105 135.845 292.152 135.735 291.198 135.735C289.493 135.735 288.146 136.065 287.156 136.725C286.184 137.367 285.698 138.265 285.698 139.42C285.698 140.502 286.129 141.345 286.991 141.95C287.852 142.555 289.053 142.857 290.593 142.857ZM311.631 148V119.895H318.506V122.59C319.404 121.472 320.477 120.637 321.723 120.087C322.988 119.519 324.427 119.235 326.041 119.235C329.176 119.235 331.596 120.207 333.301 122.15C335.006 124.075 335.858 126.852 335.858 130.482V148H329.011V132.6C329.011 130.235 328.598 128.512 327.773 127.43C326.967 126.33 325.702 125.78 323.978 125.78C322.108 125.78 320.724 126.33 319.826 127.43C318.946 128.512 318.506 130.198 318.506 132.49V148H311.631ZM344.18 148V111.507L351.055 108.29V127.897L358.865 119.895H367.005L358.865 127.98L369.205 148H361.725L353.832 132.875L351.055 135.625V148H344.18ZM399.982 148.66C396.022 148.66 392.896 147.349 390.605 144.727C388.313 142.106 387.167 138.522 387.167 133.975C387.167 130.968 387.69 128.365 388.735 126.165C389.78 123.947 391.256 122.242 393.162 121.05C395.087 119.84 397.361 119.235 399.982 119.235C402.586 119.235 404.841 119.831 406.747 121.022C408.654 122.214 410.121 123.91 411.147 126.11C412.174 128.31 412.687 130.922 412.687 133.947C412.687 136.991 412.174 139.612 411.147 141.812C410.139 144.012 408.681 145.708 406.775 146.9C404.868 148.073 402.604 148.66 399.982 148.66ZM399.982 142.087C401.834 142.087 403.273 141.372 404.3 139.942C405.326 138.512 405.84 136.514 405.84 133.947C405.84 131.381 405.317 129.382 404.272 127.952C403.246 126.504 401.816 125.78 399.982 125.78C398.131 125.78 396.682 126.504 395.637 127.952C394.592 129.401 394.07 131.408 394.07 133.975C394.07 136.505 394.592 138.494 395.637 139.942C396.682 141.372 398.131 142.087 399.982 142.087ZM420.861 148V125.917H416.901V119.895H420.861V115.55C420.861 113.35 421.439 111.682 422.594 110.545C423.767 109.408 425.463 108.84 427.681 108.84C428.928 108.84 430.037 108.959 431.009 109.197C431.999 109.417 432.943 109.757 433.841 110.215V115.825C433.09 115.513 432.375 115.275 431.696 115.11C431.018 114.927 430.395 114.835 429.826 114.835C429.13 114.835 428.607 115.009 428.259 115.357C427.91 115.687 427.736 116.201 427.736 116.897V119.895H433.841V125.917H427.736V148H420.861ZM448.156 148L462.813 109.5H469.578L484.291 148H476.618L473.566 139.86H458.853L455.856 148H448.156ZM461.163 133.342H471.201L467.351 123.03C467.223 122.718 467.085 122.37 466.938 121.985C466.792 121.6 466.654 121.215 466.526 120.83C466.398 120.427 466.288 120.078 466.196 119.785C466.104 120.078 465.994 120.427 465.866 120.83C465.738 121.215 465.6 121.6 465.453 121.985C465.307 122.37 465.169 122.718 465.041 123.03L461.163 133.342ZM502.98 148.66C501.696 148.66 500.587 148.431 499.652 147.972C498.736 147.514 497.883 146.772 497.095 145.745V148H490.22V111.397L497.095 108.29V122.095C497.81 121.178 498.69 120.472 499.735 119.977C500.798 119.482 501.953 119.235 503.2 119.235C505.528 119.235 507.563 119.849 509.305 121.077C511.046 122.306 512.403 124.029 513.375 126.247C514.365 128.447 514.86 131.005 514.86 133.92C514.86 138.558 513.806 142.179 511.697 144.782C509.607 147.367 506.701 148.66 502.98 148.66ZM502.155 142.087C504.025 142.087 505.455 141.382 506.445 139.97C507.453 138.558 507.957 136.542 507.957 133.92C507.957 131.298 507.453 129.291 506.445 127.897C505.455 126.486 504.025 125.78 502.155 125.78C501.128 125.78 500.156 126.009 499.24 126.467C498.323 126.907 497.608 127.503 497.095 128.255V139.612C497.663 140.419 498.36 141.033 499.185 141.455C500.01 141.877 501 142.087 502.155 142.087ZM524.785 158.67L529.047 147.505L518.515 119.895H525.582L531.715 136.34C531.88 136.725 532.035 137.147 532.182 137.605C532.329 138.063 532.466 138.522 532.595 138.98C532.705 138.522 532.833 138.072 532.98 137.632C533.145 137.174 533.31 136.743 533.475 136.34L539.607 119.895H546.675L531.88 158.67H524.785ZM560.689 148.66C558.489 148.66 556.381 148.192 554.364 147.257C552.366 146.322 550.78 145.067 549.606 143.49L554.116 139.695C555.051 140.685 556.133 141.473 557.361 142.06C558.59 142.628 559.763 142.912 560.881 142.912C562.275 142.912 563.347 142.683 564.099 142.225C564.851 141.748 565.226 141.088 565.226 140.245C565.226 139.695 565.043 139.209 564.676 138.787C564.328 138.347 563.705 137.907 562.806 137.467C561.908 137.009 560.643 136.487 559.011 135.9C555.858 134.745 553.621 133.498 552.301 132.16C550.981 130.803 550.321 129.089 550.321 127.017C550.321 124.707 551.256 122.837 553.126 121.407C554.996 119.959 557.435 119.235 560.441 119.235C562.495 119.235 564.383 119.62 566.106 120.39C567.848 121.16 569.342 122.287 570.589 123.772L566.106 127.485C564.456 125.817 562.531 124.982 560.331 124.982C559.213 124.982 558.315 125.193 557.636 125.615C556.958 126.018 556.619 126.568 556.619 127.265C556.619 127.943 557.013 128.548 557.801 129.08C558.608 129.612 560.102 130.235 562.284 130.95C564.447 131.628 566.198 132.398 567.536 133.26C568.893 134.122 569.883 135.121 570.506 136.257C571.148 137.394 571.469 138.705 571.469 140.19C571.469 142.83 570.506 144.902 568.581 146.405C566.675 147.908 564.044 148.66 560.689 148.66ZM587.759 148.66C585.559 148.66 583.451 148.192 581.434 147.257C579.436 146.322 577.85 145.067 576.677 143.49L581.187 139.695C582.122 140.685 583.203 141.473 584.432 142.06C585.66 142.628 586.833 142.912 587.952 142.912C589.345 142.912 590.418 142.683 591.169 142.225C591.921 141.748 592.297 141.088 592.297 140.245C592.297 139.695 592.113 139.209 591.747 138.787C591.398 138.347 590.775 137.907 589.877 137.467C588.978 137.009 587.713 136.487 586.082 135.9C582.928 134.745 580.692 133.498 579.372 132.16C578.052 130.803 577.392 129.089 577.392 127.017C577.392 124.707 578.327 122.837 580.197 121.407C582.067 119.959 584.505 119.235 587.512 119.235C589.565 119.235 591.453 119.62 593.177 120.39C594.918 121.16 596.413 122.287 597.659 123.772L593.177 127.485C591.527 125.817 589.602 124.982 587.402 124.982C586.283 124.982 585.385 125.193 584.707 125.615C584.028 126.018 583.689 126.568 583.689 127.265C583.689 127.943 584.083 128.548 584.872 129.08C585.678 129.612 587.173 130.235 589.354 130.95C591.518 131.628 593.268 132.398 594.607 133.26C595.963 134.122 596.953 135.121 597.577 136.257C598.218 137.394 598.539 138.705 598.539 140.19C598.539 142.83 597.577 144.902 595.652 146.405C593.745 147.908 591.114 148.66 587.759 148.66ZM605.699 148V119.895H612.574V148H605.699ZM609.137 116.375C608.037 116.375 607.084 115.981 606.277 115.192C605.489 114.386 605.094 113.432 605.094 112.332C605.094 111.232 605.489 110.297 606.277 109.527C607.065 108.739 608.019 108.345 609.137 108.345C610.292 108.345 611.254 108.73 612.024 109.5C612.794 110.27 613.179 111.214 613.179 112.332C613.179 113.451 612.785 114.404 611.997 115.192C611.227 115.981 610.274 116.375 609.137 116.375ZM621.221 148V119.895H628.096V122.59C628.994 121.472 630.066 120.637 631.313 120.087C632.578 119.519 634.017 119.235 635.631 119.235C638.766 119.235 641.186 120.207 642.891 122.15C644.596 124.075 645.448 126.852 645.448 130.482V148H638.601V132.6C638.601 130.235 638.188 128.512 637.363 127.43C636.556 126.33 635.291 125.78 633.568 125.78C631.698 125.78 630.314 126.33 629.416 127.43C628.536 128.512 628.096 130.198 628.096 132.49V148H621.221ZM653.824 148V119.895H660.699V148H653.824ZM657.262 116.375C656.162 116.375 655.209 115.981 654.402 115.192C653.614 114.386 653.219 113.432 653.219 112.332C653.219 111.232 653.614 110.297 654.402 109.527C655.19 108.739 656.144 108.345 657.262 108.345C658.417 108.345 659.379 108.73 660.149 109.5C660.919 110.27 661.304 111.214 661.304 112.332C661.304 113.451 660.91 114.404 660.122 115.192C659.352 115.981 658.399 116.375 657.262 116.375ZM677.651 148.66C674.589 148.66 672.16 147.835 670.363 146.185C668.585 144.517 667.696 142.262 667.696 139.42C667.696 137.587 668.154 135.982 669.071 134.607C670.006 133.214 671.298 132.142 672.948 131.39C674.616 130.62 676.56 130.235 678.778 130.235C680.006 130.235 681.189 130.354 682.326 130.592C683.481 130.812 684.489 131.133 685.351 131.555V129.795C685.351 128.218 684.901 127.036 684.003 126.247C683.123 125.441 681.821 125.037 680.098 125.037C678.723 125.037 677.311 125.285 675.863 125.78C674.415 126.275 672.948 127.008 671.463 127.98L669.401 122.562C671.014 121.499 672.811 120.683 674.791 120.115C676.771 119.528 678.769 119.235 680.786 119.235C684.562 119.235 687.386 120.133 689.256 121.93C691.126 123.708 692.061 126.367 692.061 129.905V148H685.351V145.745C684.397 146.698 683.261 147.422 681.941 147.917C680.639 148.413 679.209 148.66 677.651 148.66ZM679.246 142.857C680.382 142.857 681.473 142.637 682.518 142.197C683.581 141.739 684.526 141.097 685.351 140.272V136.945C684.562 136.56 683.682 136.267 682.711 136.065C681.757 135.845 680.804 135.735 679.851 135.735C678.146 135.735 676.798 136.065 675.808 136.725C674.836 137.367 674.351 138.265 674.351 139.42C674.351 140.502 674.781 141.345 675.643 141.95C676.505 142.555 677.706 142.857 679.246 142.857Z" fill="black"/>
<path d="M275.125 84.7188L269.156 85.875C268.844 85.9375 268.531 85.9688 268.219 85.9688C266.885 85.9688 265.927 85.3229 265.344 84.0312C264.76 82.7188 264.292 80.7708 263.938 78.1875C263.812 77.3333 263.698 76.4688 263.594 75.5938C263.49 74.7188 263.365 73.8542 263.219 73C262.948 71.3333 262.562 70.0938 262.062 69.2812C261.562 68.4688 260.833 67.9271 259.875 67.6562C258.917 67.3854 257.594 67.25 255.906 67.25C255.573 67.8333 255.125 68.7812 254.562 70.0938C254 71.4062 253.427 72.8333 252.844 74.375C252.26 75.9167 251.76 77.3542 251.344 78.6875C250.948 80 250.75 80.9688 250.75 81.5938C250.75 82.2396 250.844 82.8021 251.031 83.2812C251.219 83.7604 251.677 84.0521 252.406 84.1562L252.219 84.9688L245.812 85.875C245.375 85.9375 244.948 85.9688 244.531 85.9688C242.177 85.9688 241 84.7396 241 82.2812C241 81.4688 241.125 80.6042 241.375 79.6875C241.625 78.75 241.885 77.8958 242.156 77.125C243.427 73.7083 245.104 70.2708 247.188 66.8125C249.292 63.3542 251.5 60.2396 253.812 57.4688L247.469 58.5312L246.719 48.5C246.677 47.8958 246.521 47.3542 246.25 46.875C245.979 46.375 245.531 46.0417 244.906 45.875V45.0938L252.281 43.4375C252.698 43.3333 253.083 43.2812 253.438 43.2812C254.771 43.2812 255.469 43.9271 255.531 45.2188L255.906 55.0312L264.625 53.625C263.271 55.3958 261.948 57.2083 260.656 59.0625C259.385 60.9167 258.208 62.8333 257.125 64.8125L263.656 63.0312C264.156 62.8854 264.583 62.7812 264.938 62.7188C265.312 62.6562 265.76 62.625 266.281 62.625C267.573 62.625 268.667 63.4271 269.562 65.0312C270.458 66.6354 271.26 69.4271 271.969 73.4062C272.49 76.2396 272.906 78.4062 273.219 79.9062C273.531 81.3854 273.823 82.4167 274.094 83C274.365 83.5625 274.688 83.875 275.062 83.9375L275.125 84.7188ZM323.188 87.7812C322.229 88.1771 321.25 88.5417 320.25 88.875C319.25 89.2292 318.208 89.4062 317.125 89.4062C315.771 89.4062 314.594 88.9375 313.594 88C312.594 87.0625 312.042 85.9271 311.938 84.5938L302.094 85.5C301.885 85.5208 301.667 85.5417 301.438 85.5625C301.208 85.5625 300.979 85.5625 300.75 85.5625C299.667 85.5625 298.99 85.3021 298.719 84.7812C298.448 84.2604 298.312 83.5104 298.312 82.5312C298.312 81.3229 298.344 79.8021 298.406 77.9688C298.49 76.1354 298.583 74.1667 298.688 72.0625C298.812 69.9375 298.927 67.8438 299.031 65.7812C299.135 63.7188 299.219 61.8438 299.281 60.1562C299.365 58.4479 299.406 57.1042 299.406 56.125C299.406 55.0833 299.292 53.9271 299.062 52.6562C298.854 51.3854 298.406 50.2917 297.719 49.375C297.052 48.4375 296.031 47.9688 294.656 47.9688C294.135 47.9688 293.635 48.0417 293.156 48.1875C292.698 48.3125 292.281 48.5833 291.906 49C291.115 49.8542 290.5 51.25 290.062 53.1875C289.625 55.125 289.312 57.3125 289.125 59.75C288.938 62.1875 288.823 64.6354 288.781 67.0938C288.74 69.5521 288.719 71.7396 288.719 73.6562V76.8125C288.719 77.3542 288.729 77.9062 288.75 78.4688C288.771 79.0104 288.781 79.5521 288.781 80.0938C288.781 81.1146 288.906 81.9583 289.156 82.625C289.427 83.2708 290.135 83.7604 291.281 84.0938V84.9062L284.812 85.875C284.438 85.9375 284.062 85.9688 283.688 85.9688C283.083 85.9688 282.542 85.7708 282.062 85.375C281.792 85.1458 281.51 84.6979 281.219 84.0312C280.948 83.3646 280.719 82.25 280.531 80.6875C280.344 79.1042 280.25 76.8438 280.25 73.9062C280.25 72.5729 280.26 71.2396 280.281 69.9062C280.323 68.5729 280.344 67.2396 280.344 65.9062C280.344 63.4062 280.49 61.1875 280.781 59.25C281.073 57.3125 281.781 55.2188 282.906 52.9688C283.844 51.1146 285.094 49.6458 286.656 48.5625C288.219 47.4583 289.958 46.6771 291.875 46.2188C293.792 45.7396 295.719 45.5 297.656 45.5C300.281 45.5 302.302 46.0208 303.719 47.0625C305.135 48.0833 306.115 49.5 306.656 51.3125C307.198 53.1042 307.469 55.1562 307.469 57.4688C307.469 61.4896 307.323 65.5104 307.031 69.5312C306.74 73.5312 306.594 77.5521 306.594 81.5938C306.594 82.0729 306.719 82.3646 306.969 82.4688C307.219 82.5729 307.562 82.625 308 82.625C308.667 82.625 309.323 82.5938 309.969 82.5312C310.635 82.4479 311.292 82.3646 311.938 82.2812C312.854 80.8854 314.021 79.9583 315.438 79.5C316.875 79.0208 318.375 78.7812 319.938 78.7812C320.875 78.7812 321.729 78.8854 322.5 79.0938C322.25 79.6771 322 80.3229 321.75 81.0312C321.521 81.7396 321.406 82.4167 321.406 83.0625C321.406 84.0208 321.552 84.8646 321.844 85.5938C322.156 86.3021 322.604 87.0312 323.188 87.7812ZM373.5 87.9688C372.521 88.3854 371.531 88.7604 370.531 89.0938C369.531 89.4271 368.49 89.5938 367.406 89.5938C366.073 89.5938 364.896 89.1354 363.875 88.2188C362.875 87.3021 362.323 86.1771 362.219 84.8438L352.312 85.9375C352.125 85.9583 351.938 85.9792 351.75 86C351.583 86 351.406 86 351.219 86C350.073 86 349.333 85.6875 349 85.0625C348.688 84.4375 348.531 83.6146 348.531 82.5938C348.531 80.7396 348.573 78.8021 348.656 76.7812C348.76 74.7604 348.854 72.8125 348.938 70.9375C349.042 69.0625 349.094 67.4271 349.094 66.0312C349.094 65.1979 349.083 64.375 349.062 63.5625C349.062 62.7292 349.031 61.9062 348.969 61.0938C348.906 60.1146 348.76 59.0833 348.531 58C348.323 56.8958 347.917 55.9583 347.312 55.1875C346.708 54.3958 345.771 54 344.5 54C343.208 54 342.167 54.375 341.375 55.125C340.604 55.875 340.01 56.8333 339.594 58C339.177 59.1458 338.875 60.3438 338.688 61.5938C338.521 62.8229 338.385 63.9167 338.281 64.875C338.156 66.3333 338.073 67.7917 338.031 69.25C337.99 70.7083 337.969 72.1771 337.969 73.6562C337.969 74.1146 337.958 74.7812 337.938 75.6562C337.938 76.5312 337.948 77.4688 337.969 78.4688C338.01 79.4688 338.083 80.3958 338.188 81.25C338.292 82.1042 338.469 82.7188 338.719 83.0938C338.885 83.3646 339.094 83.5729 339.344 83.7188C339.615 83.8646 339.885 83.9896 340.156 84.0938V84.9062L333.688 85.875C333.479 85.8958 333.25 85.9271 333 85.9688C332.771 86.0104 332.542 86.0312 332.312 86.0312C331.646 86.0312 331.146 85.8229 330.812 85.4062C330.479 84.9896 330.219 84.3646 330.031 83.5312C329.844 82.6979 329.719 81.7812 329.656 80.7812C329.594 79.7812 329.552 78.8438 329.531 77.9688C329.531 77.0729 329.531 76.375 329.531 75.875C329.531 73.375 329.594 70.9583 329.719 68.625C329.844 66.2708 330.219 64.0938 330.844 62.0938C331.49 60.0729 332.573 58.3021 334.094 56.7812C335.615 55.2604 337.781 54.0729 340.594 53.2188V47.4688C340.594 46.9896 340.438 46.5521 340.125 46.1562C339.833 45.7604 339.438 45.5417 338.938 45.5L338.812 44.7188L346.469 43.125C346.635 43.0833 346.802 43.0521 346.969 43.0312C347.156 43.0104 347.344 43 347.531 43C348.198 43 348.646 43.1771 348.875 43.5312C349.125 43.8854 349.25 44.3646 349.25 44.9688V52.2812C351.688 52.7188 353.469 53.4583 354.594 54.5C355.74 55.5417 356.479 56.875 356.812 58.5C357.146 60.125 357.312 62.0417 357.312 64.25C357.312 67.125 357.25 70 357.125 72.875C357 75.75 356.938 78.625 356.938 81.5C356.938 82.0208 357.01 82.4062 357.156 82.6562C357.323 82.8854 357.698 83 358.281 83C358.948 83 359.604 82.9479 360.25 82.8438C360.917 82.7188 361.573 82.6146 362.219 82.5312C363.135 81.1562 364.302 80.2188 365.719 79.7188C367.135 79.2188 368.635 78.9688 370.219 78.9688C371.156 78.9688 372.01 79.0729 372.781 79.2812C372.552 79.8438 372.312 80.4896 372.062 81.2188C371.812 81.9479 371.688 82.625 371.688 83.25C371.688 84.2083 371.844 85.0521 372.156 85.7812C372.469 86.4896 372.917 87.2188 373.5 87.9688ZM409.5 60.5625C409.5 60.8542 409.427 61.1458 409.281 61.4375L399.688 81.3125C399.479 81.7292 399.375 82.125 399.375 82.5C399.375 83.0417 399.625 83.3958 400.125 83.5625V84.7188L394.094 85.8125C393.677 85.8958 393.219 85.9375 392.719 85.9375C391.927 85.9375 391.219 85.7604 390.594 85.4062C389.99 85.0521 389.688 84.4271 389.688 83.5312C389.688 83.1354 389.75 82.75 389.875 82.375C390 81.9792 390.135 81.6042 390.281 81.25L399.875 60.2188H391.031L394.25 52.6562C394.542 51.9688 394.688 51.2812 394.688 50.5938C394.688 49.3021 394.365 48.5312 393.719 48.2812C393.094 48.0312 392.052 47.9062 390.594 47.9062C390.115 47.9062 389.542 47.9792 388.875 48.125C388.938 48.4583 388.969 48.8021 388.969 49.1562C388.969 50.5938 388.583 51.9062 387.812 53.0938C387.062 54.2812 386.073 55.2292 384.844 55.9375C383.615 56.6458 382.292 57 380.875 57C380.521 57 380 56.9583 379.312 56.875C378.625 56.7917 378.135 56.625 377.844 56.375C378.281 55.75 378.75 54.9271 379.25 53.9062C379.771 52.8854 380.031 52 380.031 51.25C380.031 49.9167 379.688 48.7188 379 47.6562C380.396 47.0938 382.021 46.6562 383.875 46.3438C385.729 46.0312 387.594 45.8125 389.469 45.6875C391.365 45.5625 393.042 45.5 394.5 45.5C397.521 45.5 399.917 45.8229 401.688 46.4688C403.458 47.0938 404.344 48.0208 404.344 49.25C404.344 49.5833 404.156 50.25 403.781 51.25C403.406 52.25 402.969 53.3438 402.469 54.5312C401.969 55.7188 401.51 56.7812 401.094 57.7188C400.677 58.6562 400.417 59.2292 400.312 59.4375H408.312C409.104 59.4375 409.5 59.8125 409.5 60.5625ZM446.969 51.9375C446.969 54.1458 446.49 55.9688 445.531 57.4062C444.594 58.8438 443.344 59.9792 441.781 60.8125C440.219 61.625 438.5 62.1979 436.625 62.5312C434.771 62.8646 432.927 63.0521 431.094 63.0938C431.594 65.5521 432.312 68 433.25 70.4375C434.208 72.875 435.26 75.2083 436.406 77.4375L424.312 81.7812C424.438 82.0312 424.521 82.3646 424.562 82.7812C424.604 83.1979 424.625 83.5208 424.625 83.75C424.625 85.0625 424.167 86.1667 423.25 87.0625C422.354 87.9792 421.271 88.6667 420 89.125C418.729 89.6042 417.542 89.8438 416.438 89.8438C416.104 89.8438 415.719 89.7812 415.281 89.6562C414.865 89.5521 414.521 89.3958 414.25 89.1875C414.5 88.6042 414.677 87.9583 414.781 87.25C414.906 86.5417 414.969 85.8854 414.969 85.2812C414.969 84.4688 414.896 83.6458 414.75 82.8125C414.625 81.9583 414.458 81.1458 414.25 80.375C415 79.9583 415.885 79.5938 416.906 79.2812C417.927 78.9479 418.854 78.7812 419.688 78.7812C420.208 78.7812 420.833 78.8646 421.562 79.0312C422.292 79.1979 422.844 79.4896 423.219 79.9062L428.406 78.125C427.427 76.3542 426.458 74.3333 425.5 72.0625C424.542 69.7708 423.75 67.4375 423.125 65.0625C422.5 62.6875 422.188 60.5104 422.188 58.5312C422.188 56.1146 422.688 54.0417 423.688 52.3125C424.688 50.5625 426.021 49.125 427.688 48C429.375 46.8542 431.25 46.0104 433.312 45.4688C435.375 44.9271 437.469 44.6562 439.594 44.6562C441.656 44.6562 443.396 45.3542 444.812 46.75C446.25 48.125 446.969 49.8542 446.969 51.9375ZM439.281 50.2812C439.281 49.5521 439.125 48.8646 438.812 48.2188C438.5 47.5521 437.906 47.2188 437.031 47.2188C435.781 47.2188 434.729 47.6979 433.875 48.6562C433.042 49.5938 432.375 50.7812 431.875 52.2188C431.396 53.6354 431.062 55.1042 430.875 56.625C430.708 58.1458 430.677 59.4896 430.781 60.6562C432.135 60.1979 433.458 59.4375 434.75 58.375C436.062 57.3125 437.146 56.0729 438 54.6562C438.854 53.2396 439.281 51.7812 439.281 50.2812ZM509 84.9062L502.344 85.875C501.948 85.9375 501.552 85.9688 501.156 85.9688C500.01 85.9688 499.292 85.6458 499 85C498.708 84.3333 498.562 83.5104 498.562 82.5312C498.562 81.4271 498.594 80 498.656 78.25C498.74 76.4792 498.833 74.5625 498.938 72.5C499.062 70.4167 499.177 68.3438 499.281 66.2812C499.385 64.1979 499.469 62.2708 499.531 60.5C499.615 58.7083 499.656 57.25 499.656 56.125C499.656 55.0833 499.542 53.9271 499.312 52.6562C499.104 51.3854 498.656 50.2917 497.969 49.375C497.302 48.4375 496.281 47.9688 494.906 47.9688C493.26 47.9688 492.01 48.7917 491.156 50.4375C490.302 52.0833 489.719 54.2396 489.406 56.9062C489.115 59.5521 488.969 62.4062 488.969 65.4688V67.875C488.969 69.1458 489 70.125 489.062 70.8125C489.146 71.4792 489.365 71.9688 489.719 72.2812C490.073 72.5938 490.677 72.8542 491.531 73.0625V73.9062L485.062 75.125C484.792 75.1667 484.51 75.2188 484.219 75.2812C483.927 75.3229 483.635 75.3438 483.344 75.3438C483.115 75.3438 482.875 75.3333 482.625 75.3125C482.375 75.2708 482.167 75.1458 482 74.9375C481.812 74.6875 481.604 74.3854 481.375 74.0312C481.146 73.6562 480.938 72.9479 480.75 71.9062C480.583 70.8646 480.5 69.2292 480.5 67C480.5 63.9167 480.75 61.0729 481.25 58.4688C481.771 55.8438 482.667 53.5625 483.938 51.625C485.208 49.6875 486.979 48.1875 489.25 47.125C491.521 46.0417 494.406 45.5 497.906 45.5C500.531 45.5 502.552 46.0208 503.969 47.0625C505.385 48.0833 506.365 49.5 506.906 51.3125C507.448 53.1042 507.719 55.1562 507.719 57.4688C507.719 58.8438 507.677 60.5521 507.594 62.5938C507.51 64.6146 507.406 66.75 507.281 69C507.177 71.2292 507.083 73.3646 507 75.4062C506.917 77.4479 506.875 79.1667 506.875 80.5625C506.875 81.5417 506.938 82.2917 507.062 82.8125C507.208 83.3125 507.854 83.6667 509 83.875V84.9062ZM544.938 60.5625C544.938 60.8542 544.865 61.1458 544.719 61.4375L535.125 81.3125C534.917 81.7292 534.812 82.125 534.812 82.5C534.812 83.0417 535.062 83.3958 535.562 83.5625V84.7188L529.531 85.8125C529.115 85.8958 528.656 85.9375 528.156 85.9375C527.365 85.9375 526.656 85.7604 526.031 85.4062C525.427 85.0521 525.125 84.4271 525.125 83.5312C525.125 83.1354 525.188 82.75 525.312 82.375C525.438 81.9792 525.573 81.6042 525.719 81.25L535.312 60.2188H526.469L529.688 52.6562C529.979 51.9688 530.125 51.2812 530.125 50.5938C530.125 49.3021 529.802 48.5312 529.156 48.2812C528.531 48.0312 527.49 47.9062 526.031 47.9062C525.552 47.9062 524.979 47.9792 524.312 48.125C524.375 48.4583 524.406 48.8021 524.406 49.1562C524.406 50.5938 524.021 51.9062 523.25 53.0938C522.5 54.2812 521.51 55.2292 520.281 55.9375C519.052 56.6458 517.729 57 516.312 57C515.958 57 515.438 56.9583 514.75 56.875C514.062 56.7917 513.573 56.625 513.281 56.375C513.719 55.75 514.188 54.9271 514.688 53.9062C515.208 52.8854 515.469 52 515.469 51.25C515.469 49.9167 515.125 48.7188 514.438 47.6562C515.833 47.0938 517.458 46.6562 519.312 46.3438C521.167 46.0312 523.031 45.8125 524.906 45.6875C526.802 45.5625 528.479 45.5 529.938 45.5C532.958 45.5 535.354 45.8229 537.125 46.4688C538.896 47.0938 539.781 48.0208 539.781 49.25C539.781 49.5833 539.594 50.25 539.219 51.25C538.844 52.25 538.406 53.3438 537.906 54.5312C537.406 55.7188 536.948 56.7812 536.531 57.7188C536.115 58.6562 535.854 59.2292 535.75 59.4375H543.75C544.542 59.4375 544.938 59.8125 544.938 60.5625ZM582.406 63.2188C582.406 65.2396 582.198 67.2604 581.781 69.2812C581.385 71.3021 580.979 73.3333 580.562 75.375C580.167 77.3958 579.969 79.4479 579.969 81.5312C579.969 81.9688 580.021 82.3958 580.125 82.8125C580.229 83.2083 580.542 83.4583 581.062 83.5625V84.6562L574.531 85.4375C574.26 85.4583 573.99 85.4896 573.719 85.5312C573.448 85.5521 573.177 85.5625 572.906 85.5625C572.302 85.5625 571.865 85.3958 571.594 85.0625C571.323 84.7292 571.188 84.0625 571.188 83.0625C571.188 81.7708 571.312 80.1458 571.562 78.1875C571.833 76.2083 572.146 74.1354 572.5 71.9688C572.854 69.7812 573.156 67.7188 573.406 65.7812C573.677 63.8229 573.812 62.2188 573.812 60.9688C573.812 59.4896 573.5 58.25 572.875 57.25C572.271 56.2292 571.135 55.7188 569.469 55.7188C567.906 55.7188 566.521 56.2292 565.312 57.25C564.125 58.2708 563.146 59.5104 562.375 60.9688C561.604 62.4062 561.052 63.7917 560.719 65.125H564.344L560.688 77.7812C560.604 78.0729 560.49 78.5 560.344 79.0625C560.198 79.625 560.062 80.1667 559.938 80.6875C559.812 81.2083 559.75 81.5729 559.75 81.7812C559.75 82.4271 559.844 82.9375 560.031 83.3125C560.219 83.6667 560.573 83.9271 561.094 84.0938V84.9062L554.625 85.875C554.479 85.8958 554.333 85.9167 554.188 85.9375C554.062 85.9375 553.927 85.9375 553.781 85.9375C552.698 85.9375 552.021 85.5729 551.75 84.8438C551.5 84.1146 551.375 83.3021 551.375 82.4062C551.375 79.5521 551.854 76.7292 552.812 73.9375C553.771 71.1458 555.146 68.6354 556.938 66.4062L551.375 66.2188C552.167 63.0729 553.74 60.4688 556.094 58.4062C555.531 58.4479 554.885 58.5 554.156 58.5625C553.427 58.625 552.75 58.6771 552.125 58.7188C551.521 58.7396 551.125 58.75 550.938 58.75C550.396 58.75 550.031 58.6458 549.844 58.4375C549.656 58.2083 549.562 57.6667 549.562 56.8125C549.562 55.2708 549.615 53.6771 549.719 52.0312C549.844 50.3854 549.906 48.8021 549.906 47.2812C549.906 46.6354 549.823 46.0625 549.656 45.5625C549.49 45.0417 549.031 44.7396 548.281 44.6562V43.9062L555.781 41.7812C556.156 41.6771 556.51 41.625 556.844 41.625C557.552 41.625 558.021 41.8542 558.25 42.3125C558.479 42.7708 558.594 43.3021 558.594 43.9062C558.594 45.9479 558.583 48.0625 558.562 50.25C558.542 52.4167 558.49 54.5208 558.406 56.5625C560.448 55.3333 562.698 54.4688 565.156 53.9688C567.635 53.4688 570.052 53.2188 572.406 53.2188C575.906 53.2188 578.448 53.9896 580.031 55.5312C581.615 57.0521 582.406 59.6146 582.406 63.2188Z" fill="black"/>
<path d="M50.5099 70.0686L0 99.1519L50.2116 127.953L101.404 98.4769L50.5099 70.0686Z" fill="#F1AB15"/>
<path d="M178.106 69.281L127.596 98.3643L177.807 127.166L229 97.6893L178.106 69.281Z" fill="#F1AB15"/>
<path d="M120.352 167.763L170.665 197.186L170.756 139.301L119.764 109.48L120.352 167.763Z" fill="#F1AB15"/>
<path d="M57.3415 58.2829L107.654 87.706L107.746 29.8207L56.7534 0L57.3415 58.2829Z" fill="#F1AB15"/>
<path d="M107.393 167.971L107.875 109.689L57.6216 138.416L57.1329 197.486L107.393 167.971Z" fill="#F1AB15"/>
<path d="M170.15 58.3974L169.935 0.113196L120.028 29.4402L120.247 88.512L170.15 58.3974Z" fill="#F1AB15"/>
</svg>
